<svg width="49" height="91" viewBox="0 0 49 91" fill="none" xmlns="http://www.w3.org/2000/svg">
<g clip-path="url(#clip0_90_2)">
<path d="M49.948 78.3231C46.7541 78.3231 43.2521 77.2395 40.5845 75.9457C39.8994 75.6134 39.6129 74.7874 39.9446 74.101C40.2763 73.4146 41.101 73.1276 41.786 73.4599C46.3518 75.6745 51.1669 76.1954 53.4953 74.7265C54.6822 73.9776 55.2556 72.7175 55.2483 70.8741C55.2406 68.9477 54.6116 67.439 53.326 66.2619C49.5916 62.8432 41.7781 63.474 41.6996 63.4808C40.942 63.5469 40.2734 62.984 40.2074 62.2247C40.1414 61.4654 40.7014 60.7961 41.4594 60.7295C41.8282 60.6969 50.5461 59.983 55.1797 64.2178C57.0435 65.9211 57.9941 68.1569 58.0051 70.8629C58.0194 74.3934 56.3595 76.1836 54.9643 77.0635C53.5436 77.9598 51.7975 78.3231 49.9482 78.3231H49.948Z" fill="#292929"/>
<path d="M11.0445 49.7999C11.4941 48.4785 39.4659 48.9075 41.3463 50.3077C43.2266 51.7079 40.0772 83.7167 38.9375 85.8221C35.8188 91.5836 14.7732 92.6016 10.1587 83.6644C9.08222 81.5796 10.3395 51.8722 11.0445 49.7999Z" fill="#7A7A7A"/>
<path d="M25.8276 90.9999C25.7239 90.9999 25.6212 90.9994 25.5179 90.9985C22.0441 90.9644 18.7793 90.3907 16.0767 89.3395C12.9085 88.1072 10.6977 86.3115 9.50567 84.0028C8.815 82.6654 8.95762 73.8567 9.19875 66.7027C9.39779 60.7974 9.88612 50.9221 10.3485 49.5624C10.509 49.0906 11.0078 48.9353 11.1954 48.8767C13.0548 48.2973 20.4694 48.1804 26.992 48.3218C30.9929 48.4085 40.4433 48.7178 41.7846 49.7165C42.2704 50.0783 42.7379 50.8739 42.6583 56.1625C42.6008 59.9906 42.2722 64.637 42.007 67.861C41.4492 74.6362 40.3288 84.7967 39.5837 86.1732C37.7712 89.5216 31.425 91.0001 25.8276 91.0001V90.9999ZM11.6863 50.2607C11.4079 51.7107 10.9567 58.262 10.672 66.6432C10.3165 77.1055 10.4963 82.6274 10.8137 83.3304C13.1285 87.8134 19.9349 89.4708 25.5322 89.5255C31.6195 89.5859 36.9872 87.8798 38.2912 85.471C38.719 84.6618 39.7317 77.3846 40.5003 68.2364C41.3985 57.5464 41.3187 51.7904 40.8613 50.8735C40.0088 50.4576 34.6726 49.9365 26.2374 49.7796C18.4001 49.634 12.8712 49.903 11.6861 50.2605L11.6863 50.2607ZM11.7404 50.0374C11.7404 50.0374 11.7404 50.0379 11.74 50.0383C11.74 50.0383 11.7402 50.0378 11.7404 50.0374Z" fill="#292929"/>
<path d="M21.1491 42.319C21.0346 42.319 20.9186 42.2922 20.8102 42.2356C14.8641 39.1325 12.0043 33.8018 12.2528 30.1397C12.4079 27.8542 16.3849 25.607 20.2313 23.4338C22.1914 22.3263 24.876 20.8096 25.0868 20.1782C25.4843 18.9884 23.1294 15.176 21.4128 12.9741C21.1629 12.6536 21.2197 12.1907 21.5396 11.9403C21.8596 11.6899 22.3217 11.7468 22.5716 12.0673C23.3637 13.0833 27.2746 18.2715 26.4812 20.6457C26.1088 21.7598 24.2345 22.8629 20.9535 24.7166C18.1133 26.3214 13.8211 28.7466 13.7198 30.2393C13.5039 33.4236 16.1034 38.118 21.4895 40.9289C21.8495 41.1169 21.9894 41.5616 21.8019 41.9225C21.6709 42.1745 21.4147 42.3189 21.1493 42.3189L21.1491 42.319Z" fill="#292929"/>
<path d="M27.2188 42.7322C27.1442 42.7322 27.0681 42.7208 26.9933 42.6965C26.2475 42.4558 25.6702 41.939 25.3236 41.2018C24.092 38.5818 25.9766 33.6753 26.1955 33.1244C26.3456 32.7466 26.7729 32.5625 27.1503 32.7128C27.5274 32.863 27.7116 33.2913 27.5618 33.6691C27.033 35.0023 25.8389 38.8419 26.6542 40.5749C26.8301 40.9486 27.0812 41.1773 27.4441 41.2946C27.8306 41.4193 28.0429 41.8343 27.9185 42.2215C27.8182 42.5335 27.5294 42.7324 27.219 42.7324L27.2188 42.7322Z" fill="#292929"/>
<path d="M30.9321 46.4717C30.5849 46.4717 30.276 46.224 30.2102 45.8696C30.1361 45.4706 30.398 45.0871 30.7955 45.0114C31.0749 44.9566 33.5011 44.4018 33.3873 41.7429C33.37 41.3366 33.6847 40.993 34.0903 40.9755C34.4946 40.9586 34.8389 41.2734 34.8561 41.6798C34.9929 44.8763 32.4375 46.2036 31.0672 46.459C31.0218 46.4674 30.9766 46.4715 30.9319 46.4715L30.9321 46.4717Z" fill="#292929"/>
<path d="M19.7534 7.41964C19.4213 7.41964 19.1201 7.19262 19.0392 6.85476C18.0911 2.89691 19.8642 0.405949 19.9401 0.301921C20.1798 -0.0265496 20.6396 -0.0979882 20.9675 0.141921C21.2943 0.381277 21.3663 0.839921 21.1294 1.16802C21.0651 1.25861 19.6884 3.25245 20.4691 6.51119C20.5637 6.90668 20.3206 7.3042 19.9258 7.39921C19.8683 7.41302 19.8102 7.41964 19.7534 7.41964Z" fill="#292929"/>
<path d="M11.0446 49.8C11.0446 49.8 38.1747 55.4634 41.3463 50.3078C41.701 47.5991 11.2331 48.717 11.0446 49.8Z" fill="#292929"/>
<path d="M32.8981 53.2148C30.6517 53.2148 27.9989 53.0494 24.9278 52.7193C17.7953 51.9528 10.9628 50.5351 10.8948 50.5209C10.5064 50.4399 10.2524 50.0649 10.3205 49.6732C10.4287 49.0515 10.82 48.7653 14.312 48.4361C16.3584 48.2432 19.1252 48.0835 22.1028 47.9869C29.2233 47.7556 35.4489 47.9197 38.7556 48.4258C39.8944 48.6002 42.2642 48.9627 42.0754 50.4033C42.062 50.5064 42.0267 50.6054 41.9723 50.6938C40.9359 52.3783 37.9457 53.2146 32.8981 53.2146V53.2148ZM15.2265 49.8369C17.8387 50.2941 21.4273 50.8621 25.0943 51.2559C35.9505 52.4214 39.3313 51.2042 40.3816 50.3053C39.2811 49.8634 35.3901 49.266 26.1579 49.3711C21.7273 49.4215 17.8782 49.6162 15.2265 49.8371V49.8369Z" fill="#292929"/>
</g>
<defs>
<clipPath id="clip0_90_2">
<rect width="49" height="91" fill="white"/>
</clipPath>
</defs>
</svg>
