<svg width="57" height="106" viewBox="0 0 57 106" fill="none" xmlns="http://www.w3.org/2000/svg">
<g clip-path="url(#clip0_194_15)">
<path d="M47.6277 91.2335C43.9124 91.2335 39.8385 89.9714 36.7355 88.4643C35.9385 88.0772 35.6052 87.1151 35.9911 86.3155C36.377 85.516 37.3363 85.1816 38.1331 85.5687C43.4444 88.1484 49.0456 88.7551 51.7541 87.0441C53.1348 86.1718 53.8019 84.704 53.7933 82.5567C53.7843 80.3127 53.0527 78.5554 51.5572 77.1843C47.2131 73.202 38.1239 73.9368 38.0326 73.9447C37.1513 74.0217 36.3735 73.3661 36.2968 72.4816C36.22 71.5971 36.8715 70.8175 37.7532 70.7399C38.1822 70.7019 48.3234 69.8704 53.7136 74.8032C55.8817 76.7873 56.9874 79.3916 57.0002 82.5436C57.0169 86.6561 55.0859 88.7414 53.463 89.7663C51.8104 90.8104 49.7791 91.2335 47.6279 91.2335H47.6277Z" fill="#2D1F16"/>
<path d="M2.37275 58.0088C2.8957 56.4696 35.4344 56.9693 37.6217 58.6003C39.8091 60.2314 36.1455 97.5163 34.8197 99.9688C31.1918 106.68 6.71022 107.866 1.34226 97.4554C0.0900684 95.027 1.55264 60.4227 2.37275 58.0088Z" fill="white"/>
<path d="M19.5693 106C19.4487 106 19.3292 105.999 19.209 105.998C15.1681 105.959 11.3703 105.29 8.22642 104.066C4.54102 102.631 1.96929 100.539 0.582617 97.8496C-0.220823 96.2917 -0.0549183 86.031 0.22558 77.6978C0.45712 70.8191 1.02517 59.316 1.56308 57.7321C1.74972 57.1827 2.32996 57.0016 2.54824 56.9334C4.7112 56.2585 13.3363 56.1223 20.9239 56.287C25.578 56.388 36.5713 56.7484 38.1316 57.9116C38.6966 58.3331 39.2405 59.2598 39.148 65.4202C39.081 69.8793 38.6988 75.2916 38.3903 79.047C37.7414 86.9391 36.4381 98.7744 35.5714 100.378C33.4629 104.278 26.0806 106 19.5693 106V106ZM3.11929 58.5456C2.79539 60.2346 2.27053 67.8658 1.93936 77.6285C1.52588 89.8153 1.73497 96.2475 2.10419 97.0663C4.79694 102.288 12.7146 104.219 19.2257 104.283C26.3068 104.353 32.5509 102.366 34.0678 99.5598C34.5655 98.6172 35.7435 90.1405 36.6376 79.4843C37.6824 67.0322 37.5896 60.3274 37.0575 59.2594C36.0659 58.7749 29.8584 58.1679 20.0461 57.9852C10.9292 57.8156 4.49762 58.1289 3.11908 58.5454L3.11929 58.5456ZM3.18215 58.2855C3.18215 58.2855 3.18215 58.2861 3.18172 58.2865C3.18172 58.2865 3.18193 58.2859 3.18215 58.2855Z" fill="#2D1F16"/>
<path d="M14.1269 49.2949C13.9937 49.2949 13.8588 49.2636 13.7327 49.1977C6.81579 45.5831 3.48915 39.3737 3.7782 35.1079C3.95864 32.4457 8.58494 29.8281 13.0592 27.2967C15.3394 26.0067 18.4623 24.2399 18.7075 23.5045C19.1699 22.1186 16.4306 17.6778 14.4337 15.1129C14.143 14.7395 14.209 14.2003 14.5812 13.9087C14.9535 13.617 15.4909 13.6833 15.7817 14.0566C16.7032 15.2401 21.2525 21.2834 20.3295 24.049C19.8964 25.3468 17.7161 26.6317 13.8994 28.7909C10.5955 30.6603 5.60251 33.4853 5.48471 35.224C5.2335 38.9332 8.25741 44.4013 14.5229 47.6756C14.9417 47.8946 15.1044 48.4126 14.8863 48.8329C14.7339 49.1265 14.4359 49.2947 14.1271 49.2947L14.1269 49.2949Z" fill="#2D1F16"/>
<path d="M21.1877 49.7759C21.1009 49.7759 21.0124 49.7626 20.9254 49.7343C20.0578 49.454 19.3863 48.852 18.983 47.9933C17.5504 44.9414 19.7427 39.2262 19.9973 38.5845C20.172 38.1444 20.669 37.9299 21.108 38.1049C21.5467 38.2799 21.7609 38.7788 21.5866 39.2189C20.9716 40.7719 19.5825 45.2444 20.5309 47.263C20.7355 47.6984 21.0276 47.9647 21.4498 48.1014C21.8994 48.2466 22.1464 48.73 22.0016 49.181C21.8849 49.5445 21.549 49.7762 21.1879 49.7762L21.1877 49.7759Z" fill="#2D1F16"/>
<path d="M25.5072 54.1319C25.1033 54.1319 24.7439 53.8434 24.6674 53.4306C24.5812 52.9658 24.8859 52.5191 25.3483 52.4309C25.6733 52.367 28.4956 51.7208 28.3633 48.6237C28.3432 48.1503 28.7092 47.7501 29.181 47.7298C29.6514 47.71 30.0518 48.0768 30.0719 48.5501C30.231 52.2735 27.2584 53.8196 25.6643 54.1171C25.6115 54.127 25.5589 54.1317 25.507 54.1317L25.5072 54.1319Z" fill="#2D1F16"/>
<path d="M12.5033 8.64266C12.117 8.64266 11.7666 8.37822 11.6725 7.98467C10.5696 3.37443 12.6323 0.472864 12.7206 0.351688C12.9993 -0.0309259 13.5343 -0.11414 13.9157 0.165314C14.2958 0.444125 14.3796 0.978369 14.104 1.36055C14.0292 1.46607 12.4277 3.78857 13.3359 7.58447C13.446 8.04515 13.1631 8.50819 12.7039 8.61886C12.637 8.63494 12.5694 8.64266 12.5033 8.64266Z" fill="#2D1F16"/>
<path d="M2.37268 58.0087C2.37268 58.0087 33.9322 64.6056 37.6216 58.6002C38.0343 55.4449 2.59203 56.7472 2.37268 58.0087Z" fill="#2D1F16"/>
<path d="M27.7942 61.9865C25.181 61.9865 22.0951 61.794 18.5226 61.4094C10.2256 60.5166 2.27759 58.8651 2.19849 58.8486C1.74674 58.7543 1.45127 58.3174 1.53038 57.8612C1.6563 57.137 2.11147 56.8037 6.17357 56.4202C8.55417 56.1954 11.7726 56.0095 15.2363 55.8969C23.5194 55.6275 30.7614 55.8186 34.608 56.4082C35.9327 56.6113 38.6894 57.0336 38.4698 58.7116C38.4542 58.8317 38.4132 58.9471 38.3499 59.05C37.1443 61.0122 33.6658 61.9863 27.7942 61.9863V61.9865ZM7.23741 58.0519C10.2761 58.5844 14.4506 59.246 18.7163 59.7048C31.3449 61.0624 35.2776 59.6445 36.4995 58.5975C35.2193 58.0828 30.693 57.3868 19.9535 57.5093C14.7995 57.568 10.322 57.7947 7.23741 58.0521V58.0519Z" fill="#2D1F16"/>
</g>
<defs>
<clipPath id="clip0_194_15">
<rect width="57" height="106" fill="white"/>
</clipPath>
</defs>
</svg>
