<svg width="305" height="36" viewBox="0 0 305 36" fill="none" xmlns="http://www.w3.org/2000/svg">
<path d="M2.24 34.92L0 2.92H3.48L5.08 28.8L17.76 2.92H21.36L5.52 34.92H2.24Z" fill="black"/>
<path d="M31.7044 35.48C29.5444 35.48 27.8777 35.1333 26.7044 34.44C25.5577 33.7467 24.8777 32.6 24.6644 31C24.451 29.3733 24.731 27.1867 25.5044 24.44L27.9044 15.88C28.091 15.16 28.0644 14.5867 27.8244 14.16C27.5844 13.7067 27.0377 13.4 26.1844 13.24L26.9844 10.2C28.6377 10.4667 29.8377 11.04 30.5844 11.92C31.3577 12.8 31.5577 13.9467 31.1844 15.36L28.7044 24.44C28.1444 26.4933 27.891 28.1067 27.9444 29.28C28.0244 30.4267 28.3977 31.24 29.0644 31.72C29.7577 32.2 30.731 32.44 31.9844 32.44C32.6244 32.44 33.171 32.3467 33.6244 32.16C34.1044 31.9733 34.571 31.64 35.0244 31.16C35.5044 30.6533 36.051 29.9733 36.6644 29.12L39.1844 30.88C38.3577 32.0267 37.571 32.9467 36.8244 33.64C36.0777 34.3067 35.291 34.7733 34.4644 35.04C33.6644 35.3333 32.7444 35.48 31.7044 35.48ZM31.7444 5.72C30.5977 5.72 29.851 5.52 29.5044 5.12C29.1577 4.72 29.091 3.98667 29.3044 2.92C29.5177 2.01333 29.8377 1.4 30.2644 1.08C30.691 0.733333 31.3844 0.56 32.3444 0.56C33.491 0.56 34.2377 0.76 34.5844 1.16C34.931 1.56 34.9844 2.29333 34.7444 3.36C34.5577 4.26667 34.2377 4.89333 33.7844 5.24C33.3577 5.56 32.6777 5.72 31.7444 5.72Z" fill="black"/>
<path d="M59.7287 28.84L62.1287 30.64C61.0887 31.8933 60.0887 32.88 59.1287 33.6C58.1687 34.2933 57.1021 34.7733 55.9287 35.04C54.7554 35.3333 53.3288 35.48 51.6488 35.48C49.3288 35.48 47.5688 35.08 46.3688 34.28C45.1954 33.4533 44.5154 32.0933 44.3288 30.2C44.1421 28.28 44.3954 25.68 45.0887 22.4C45.4887 20.56 46.1021 18.8667 46.9287 17.32C47.7821 15.7467 48.7821 14.4 49.9287 13.28C51.0754 12.1333 52.3154 11.24 53.6488 10.6C54.9821 9.96 56.3421 9.64 57.7288 9.64C59.1954 9.64 60.4088 9.8 61.3688 10.12C62.3288 10.4133 63.1288 10.92 63.7688 11.64C64.4088 12.36 64.9821 13.32 65.4888 14.52L62.5288 16.12C62.1288 15.2133 61.7154 14.5067 61.2887 14C60.8621 13.4933 60.3421 13.1467 59.7287 12.96C59.1421 12.7733 58.3687 12.68 57.4087 12.68C56.1554 12.68 54.8887 13.12 53.6087 14C52.3554 14.88 51.2354 16.08 50.2487 17.6C49.2621 19.0933 48.5554 20.8 48.1287 22.72C47.5687 25.2267 47.3287 27.1867 47.4087 28.6C47.4887 30.0133 47.9021 31.0133 48.6488 31.6C49.3954 32.16 50.5021 32.44 51.9688 32.44C53.2488 32.44 54.3021 32.3333 55.1287 32.12C55.9554 31.9067 56.7154 31.5467 57.4087 31.04C58.1021 30.5067 58.8754 29.7733 59.7287 28.84Z" fill="black"/>
<path d="M78.4731 35.48C75.6998 35.48 73.8998 34.7467 73.0731 33.28C72.2465 31.8133 72.1798 29.4133 72.8731 26.08L75.5931 13.24H70.6331L71.2731 10.2H76.2331L77.7531 2.92H81.0331L79.5131 10.2H87.8331L87.1531 13.24H78.8331L76.0331 26.24C75.5531 28.56 75.4998 30.1733 75.8731 31.08C76.2731 31.9867 77.2465 32.44 78.7931 32.44C79.7798 32.44 80.5665 32.36 81.1531 32.2C81.7398 32.04 82.2198 31.76 82.5931 31.36C82.9665 30.96 83.3398 30.4267 83.7131 29.76L86.5531 31.04C85.9665 32.1867 85.3131 33.08 84.5931 33.72C83.8998 34.36 83.0598 34.8133 82.0731 35.08C81.1131 35.3467 79.9131 35.48 78.4731 35.48Z" fill="black"/>
<path d="M99.8575 35.48C97.5108 35.48 95.7508 35.0533 94.5775 34.2C93.4042 33.3467 92.7375 31.9733 92.5775 30.08C92.4175 28.16 92.6575 25.6 93.2975 22.4C93.8042 19.92 94.6175 17.7333 95.7375 15.84C96.8842 13.92 98.2575 12.4133 99.8575 11.32C101.457 10.2 103.164 9.64 104.978 9.64C107.324 9.64 109.098 10.0667 110.298 10.92C111.498 11.7733 112.178 13.16 112.338 15.08C112.524 16.9733 112.257 19.52 111.537 22.72C111.004 25.1733 110.164 27.36 109.018 29.28C107.871 31.2 106.511 32.72 104.938 33.84C103.391 34.9333 101.697 35.48 99.8575 35.48ZM100.177 32.44C101.377 32.44 102.538 32.0133 103.658 31.16C104.804 30.28 105.804 29.08 106.658 27.56C107.511 26.04 108.124 24.32 108.497 22.4C109.004 19.92 109.217 17.9733 109.137 16.56C109.084 15.1467 108.698 14.1467 107.978 13.56C107.258 12.9733 106.151 12.68 104.658 12.68C103.458 12.68 102.297 13.12 101.177 14C100.084 14.8533 99.1108 16.04 98.2575 17.56C97.4308 19.0533 96.7908 20.7733 96.3375 22.72C95.8042 25.2 95.5642 27.1467 95.6175 28.56C95.6708 29.9733 96.0708 30.9733 96.8175 31.56C97.5642 32.1467 98.6842 32.44 100.177 32.44Z" fill="black"/>
<path d="M118.722 24.88L116.842 22.32C118.335 20.8533 119.522 19.3333 120.402 17.76C121.282 16.16 121.722 14.8 121.722 13.68C121.722 13.1467 121.629 12.72 121.442 12.4C121.255 12.0533 120.975 11.88 120.602 11.88C120.229 11.88 119.922 12 119.682 12.24C119.442 12.48 119.322 12.7867 119.322 13.16C119.322 13.8533 119.749 14.32 120.602 14.56C121.482 14.8 122.615 14.92 124.002 14.92C124.802 14.92 125.762 14.7467 126.882 14.4C128.002 14.0533 129.189 13.5733 130.442 12.96C131.695 12.3467 132.922 11.6533 134.122 10.88L136.282 12.36C134.762 14.5733 133.429 16.76 132.282 18.92C131.162 21.08 130.282 23.1467 129.642 25.12C129.029 27.0933 128.722 28.8933 128.722 30.52C128.749 31.08 128.895 31.5467 129.162 31.92C129.455 32.2667 129.815 32.44 130.242 32.44C130.882 32.44 131.495 32.1733 132.082 31.64C132.669 31.08 133.082 30.4 133.322 29.6L136.282 30.6C135.989 31.56 135.509 32.4133 134.842 33.16C134.202 33.88 133.455 34.4533 132.602 34.88C131.775 35.28 130.895 35.48 129.962 35.48C128.629 35.48 127.562 35.0533 126.762 34.2C125.962 33.32 125.575 32.1733 125.602 30.76C125.575 29.3467 125.735 27.8667 126.082 26.32C126.429 24.7733 126.962 23.16 127.682 21.48C128.402 19.8 129.269 18.0533 130.282 16.24C129.082 16.8 127.895 17.2267 126.722 17.52C125.549 17.8133 124.549 17.96 123.722 17.96C121.615 17.96 119.922 17.56 118.642 16.76C117.389 15.9333 116.775 14.8533 116.802 13.52C116.775 12.4 117.149 11.48 117.922 10.76C118.722 10.0133 119.749 9.64 121.002 9.64C122.095 9.64 122.962 10.0267 123.602 10.8C124.269 11.5733 124.575 12.5867 124.522 13.84C124.549 14.7733 124.322 15.8667 123.842 17.12C123.362 18.3467 122.682 19.6267 121.802 20.96C120.949 22.2933 119.922 23.6 118.722 24.88Z" fill="black"/>
<path d="M161.491 34.92L168.851 2.92H171.971L174.891 19.72L185.011 2.92H188.211L181.971 34.92H178.691L183.291 11.44L175.371 25.04H172.411L170.251 11.44L164.771 34.92H161.491Z" fill="black"/>
<path d="M199.579 35.48C197.446 35.48 195.793 35.1333 194.619 34.44C193.446 33.7467 192.753 32.6 192.539 31C192.326 29.3733 192.606 27.1867 193.379 24.44L195.779 15.88C195.966 15.16 195.939 14.5867 195.699 14.16C195.459 13.7067 194.913 13.4 194.059 13.24L194.859 10.2C196.513 10.4667 197.726 11.04 198.499 11.92C199.246 12.8 199.433 13.9467 199.059 15.36L196.579 24.44C196.019 26.4933 195.779 28.1067 195.859 29.28C195.913 30.4267 196.286 31.24 196.979 31.72C197.646 32.2 198.606 32.44 199.859 32.44C201.886 32.44 203.979 32.08 206.139 31.36C208.299 30.64 210.433 29.6667 212.539 28.44C214.673 27.1867 216.686 25.7467 218.579 24.12C220.473 22.4933 222.139 20.76 223.579 18.92C225.046 17.08 226.193 15.2133 227.019 13.32C227.873 11.4267 228.299 9.6 228.299 7.84C228.299 7.04 228.153 6.44 227.859 6.04C227.566 5.64 227.113 5.44 226.499 5.44C225.753 5.44 225.059 5.84 224.419 6.64C223.806 7.41333 223.273 8.49333 222.819 9.88C222.366 11.2667 221.993 12.88 221.699 14.72C221.406 16.56 221.206 18.56 221.099 20.72C220.993 22.8533 220.966 25.0667 221.019 27.36C221.046 28.8533 221.313 30.08 221.819 31.04C222.326 31.9733 222.966 32.44 223.739 32.44C224.486 32.44 225.313 32.12 226.219 31.48C227.126 30.84 227.859 30.04 228.419 29.08L230.939 30.92C229.979 32.28 228.806 33.3867 227.419 34.24C226.059 35.0667 224.739 35.48 223.459 35.48C221.753 35.48 220.393 34.88 219.379 33.68C218.366 32.4533 217.846 30.8533 217.819 28.88C217.819 24.7467 217.953 21.04 218.219 17.76C218.513 14.48 219.006 11.6933 219.699 9.4C220.393 7.10667 221.313 5.36 222.459 4.16C223.633 2.96 225.086 2.36 226.819 2.36C228.286 2.36 229.433 2.85333 230.259 3.84C231.113 4.8 231.539 6.09333 231.539 7.72C231.539 9.77333 231.099 11.88 230.219 14.04C229.339 16.2 228.113 18.32 226.539 20.4C224.966 22.48 223.139 24.4267 221.059 26.24C219.006 28.0533 216.779 29.6533 214.379 31.04C212.006 32.4267 209.566 33.52 207.059 34.32C204.553 35.0933 202.059 35.48 199.579 35.48ZM199.499 6.28C198.219 6.28 197.353 6.01333 196.899 5.48C196.446 4.94667 196.353 4.08 196.619 2.88C196.833 1.81333 197.219 1.06667 197.779 0.639999C198.313 0.213333 199.153 0 200.299 0C201.579 0 202.446 0.266666 202.899 0.799999C203.353 1.33333 203.446 2.2 203.179 3.4C202.966 4.46667 202.593 5.21333 202.059 5.64C201.499 6.06667 200.646 6.28 199.499 6.28Z" fill="black"/>
<path d="M247.444 35.48C245.737 35.48 244.377 34.88 243.364 33.68C242.35 32.4533 241.83 30.8533 241.804 28.88C241.804 24.7467 241.95 21.04 242.244 17.76C242.537 14.48 243.004 11.6933 243.644 9.4C244.31 7.10667 245.19 5.36 246.284 4.16C247.377 2.96 248.684 2.36 250.204 2.36C251.644 2.36 252.79 2.86667 253.644 3.88C254.497 4.86667 254.924 6.28 254.924 8.12C254.924 10.1733 254.564 12.2533 253.844 14.36C253.15 16.4667 252.164 18.5467 250.884 20.6C249.604 22.6267 248.07 24.5467 246.284 26.36C244.497 28.1467 242.524 29.7733 240.364 31.24C238.23 32.7067 235.95 33.9467 233.524 34.96L232.444 32.2C234.577 31.2933 236.604 30.1733 238.524 28.84C240.444 27.48 242.19 25.9733 243.764 24.32C245.364 22.64 246.75 20.8933 247.924 19.08C249.124 17.2667 250.044 15.44 250.684 13.6C251.324 11.76 251.644 9.97333 251.644 8.24C251.644 7.25333 251.497 6.54667 251.204 6.12C250.937 5.66667 250.497 5.44 249.884 5.44C249.27 5.44 248.697 5.84 248.164 6.64C247.657 7.41333 247.19 8.49333 246.764 9.88C246.337 11.2667 245.977 12.88 245.684 14.72C245.417 16.56 245.217 18.56 245.084 20.72C244.977 22.8533 244.95 25.0667 245.004 27.36C245.03 28.8533 245.297 30.08 245.804 31.04C246.31 31.9733 246.95 32.44 247.724 32.44C248.47 32.44 249.297 32.12 250.204 31.48C251.11 30.84 251.844 30.04 252.404 29.08L254.924 30.92C253.964 32.28 252.79 33.3867 251.404 34.24C250.044 35.0667 248.724 35.48 247.444 35.48Z" fill="black"/>
<path d="M278.508 31L279.908 33.64C279.561 34.2 278.961 34.64 278.108 34.96C277.255 35.3067 276.401 35.48 275.548 35.48C274.588 35.48 273.801 35.24 273.188 34.76C272.601 34.2533 272.295 33.6267 272.268 32.88C272.241 32.7467 272.228 32.6 272.228 32.44C272.228 32.2533 272.255 32.1333 272.308 32.08C271.535 33.12 270.601 33.9467 269.508 34.56C268.441 35.1733 267.375 35.48 266.308 35.48C264.868 35.48 263.601 35.1733 262.508 34.56C261.441 33.9467 260.615 33.08 260.028 31.96C259.441 30.84 259.148 29.5467 259.148 28.08C259.148 26.3467 259.401 24.6 259.908 22.84C260.441 21.08 261.175 19.4133 262.108 17.84C263.041 16.2667 264.081 14.8667 265.228 13.64C266.401 12.3867 267.641 11.4133 268.948 10.72C270.255 10 271.548 9.64 272.828 9.64C274.855 9.64 276.401 9.94667 277.468 10.56C278.535 11.1733 279.068 12.1867 279.068 13.6C279.095 13.7333 279.081 13.9467 279.028 14.24C279.001 14.5067 278.921 14.9733 278.788 15.64C278.655 16.28 278.455 17.2133 278.188 18.44C277.948 19.64 277.615 21.2267 277.188 23.2C276.788 25.1467 276.268 27.5733 275.628 30.48C275.521 31.12 275.495 31.6133 275.548 31.96C275.601 32.28 275.935 32.44 276.548 32.44C276.868 32.44 277.201 32.3067 277.548 32.04C277.921 31.7733 278.241 31.4267 278.508 31ZM266.588 32.44C267.495 32.44 268.415 32.0933 269.348 31.4C270.281 30.7067 271.135 29.7733 271.908 28.6C272.708 27.4 273.348 26.0667 273.828 24.6C274.415 21.7733 274.908 19.4133 275.308 17.52C275.708 15.6267 275.908 14.4667 275.908 14.04C275.908 13.5067 275.655 13.1467 275.148 12.96C274.641 12.7733 273.775 12.68 272.548 12.68C271.695 12.68 270.801 12.9867 269.868 13.6C268.935 14.2133 268.015 15.04 267.108 16.08C266.201 17.12 265.388 18.2933 264.668 19.6C263.948 20.9067 263.375 22.2667 262.948 23.68C262.521 25.0933 262.295 26.48 262.268 27.84C262.295 29.2 262.708 30.3067 263.508 31.16C264.308 32.0133 265.335 32.44 266.588 32.44Z" fill="black"/>
<path d="M303.372 31L304.772 33.64C304.426 34.2 303.826 34.64 302.973 34.96C302.119 35.3067 301.266 35.48 300.413 35.48C299.426 35.48 298.639 35.2267 298.052 34.72C297.466 34.1867 297.159 33.5067 297.133 32.68C297.106 31.9067 297.199 30.8533 297.413 29.52C297.653 28.16 297.999 26.5867 298.453 24.8C298.933 23.0133 299.519 21.0667 300.212 18.96C300.959 16.7733 301.106 15.1867 300.652 14.2C300.226 13.1867 299.372 12.68 298.092 12.68C297.452 12.68 296.759 12.8933 296.013 13.32C295.293 13.7467 294.573 14.3333 293.853 15.08C293.133 15.8 292.439 16.6133 291.772 17.52C291.132 18.4 290.572 19.3333 290.092 20.32C289.639 21.3067 289.319 22.2667 289.133 23.2L286.693 34.92H283.372L287.853 14.24C287.853 14.1333 287.866 14.0133 287.892 13.88C287.946 13.7467 287.959 13.6267 287.932 13.52C287.906 13.2533 287.799 13.0533 287.612 12.92C287.452 12.76 287.226 12.68 286.932 12.68C286.692 12.68 286.412 12.7733 286.092 12.96C285.799 13.12 285.412 13.44 284.932 13.92L283.533 11.48C283.906 10.92 284.519 10.48 285.372 10.16C286.226 9.81333 287.066 9.64 287.892 9.64C288.666 9.64 289.332 9.82667 289.892 10.2C290.452 10.5467 290.866 11.0267 291.133 11.64C291.399 12.2533 291.412 12.9467 291.172 13.72L290.812 14.88C291.959 13.2533 293.199 11.9733 294.533 11.04C295.866 10.1067 297.146 9.64 298.372 9.64C300.959 9.64 302.693 10.4667 303.573 12.12C304.479 13.7467 304.399 16.1467 303.332 19.32C302.746 21.1333 302.213 22.84 301.733 24.44C301.279 26.0133 300.933 27.4267 300.693 28.68C300.453 29.9067 300.346 30.88 300.372 31.6C300.399 31.84 300.506 32.04 300.693 32.2C300.879 32.36 301.119 32.44 301.413 32.44C301.733 32.44 302.066 32.3067 302.413 32.04C302.786 31.7733 303.106 31.4267 303.372 31Z" fill="black"/>
</svg>
