<svg width="50" height="50" viewBox="0 0 50 50" fill="none" xmlns="http://www.w3.org/2000/svg">
<path d="M7 3L10.1765 42.3684L25 47L39.8235 42.3684C40.8824 29.246 41.9412 16.1224 43 3H7ZM9.31204 5.31579H40.688L37.8424 40.5796L25 44.5915L12.1576 40.5796L9.31204 5.31579ZM17.1126 12.2632L16.0951 26.1579H29.8495L29.4152 31.9474L25 32.6643L20.6386 31.9474L20.4462 29.6316H16.3598L16.7734 35.4211L24.9897 37.7368L33.2162 35.4211L34.2647 21.5263H20.8598L21.199 16.8947H30.0501L30.2941 19.2105H34.2109L33.4706 12.2632H17.1126Z" fill="black"/>
</svg>
