<svg width="50" height="50" viewBox="0 0 50 50" fill="none" xmlns="http://www.w3.org/2000/svg">
<path d="M34.9024 2C32.8633 2 31.0977 2.55078 29.8751 3.09375C28.6758 2.69141 26.6876 2.00391 24.3008 2.5C22.9102 2.74219 21.6329 3.31641 20.461 4.19531C18.5313 3.26562 16.5157 2.69531 14.4024 2.60156C13.1016 2.5 7.80084 3.10156 5.89849 5.89844C5.19928 7 4.50006 8.39844 4.19928 10.0977C3.89849 11.5977 3.89849 13.3008 4.39849 16.8008C4.69928 19.1992 5.10162 20.8008 6.00006 24.0977C6.10162 24.3984 6.60162 26 8.10162 30.4023C8.39849 31.1992 9.00006 32.6992 10.1993 34.0977C11.0001 35.0977 11.8008 35.6992 12.8008 35.6992C14.1016 35.6992 15.0001 34.8008 15.8008 33.8008C15.8594 33.7344 15.9219 33.6602 15.9805 33.5938C15.9063 33.7109 15.8399 33.8398 15.8008 34C15.6016 35 16.8008 35.8008 17.8008 36.1992C18.6016 36.5977 19.5001 36.6992 20.1993 36.6992C21.0977 36.6992 21.8008 36.5 22.1993 36.4023C22.543 36.2852 23.2852 35.9648 24.0782 35.4375C24.1133 37.9922 24.1368 41.0078 24.1993 41.6992C24.5001 44.3008 25.1993 46.0977 26.5001 47.0977C27.5001 47.8984 29.3008 48 29.4024 48C31.1993 48 34.0001 46.8008 35.1993 44.9023C35.8008 44 36.0001 43.1992 36.1993 42.0977C36.3985 41.5 36.5977 38 36.6993 37.3008C36.836 36.1953 36.9415 35.1055 37.0469 34.0469C37.7071 34.2188 38.5196 34.4023 39.4024 34.4023C41.0001 34.4023 43.1016 33.3008 43.5001 33.0977C44.3008 32.5 45.8985 31.1016 45.1993 29.9023C44.8008 29.1992 44.1993 29.1992 42.6993 29.4023C42.6993 29.4023 40.3008 29.6992 40.0977 29.5977C39.9532 29.543 39.7305 29.4023 39.4805 29.2188C40.0001 28.4141 40.461 27.6172 41.0001 26.9023C42.1993 24.6016 42.9024 22.8008 43.4024 21.4023C44.3008 18.9023 44.8008 16.8984 45.0977 15.5C45.8008 12.5 46.0001 11.1016 45.5977 9.5C44.8008 6.69922 41.8985 4.30078 40.6993 3.60156C39.8985 3.19922 37.9024 2 34.9024 2ZM34.9024 4C37.4024 4 39.1016 5 40.0001 5.39844C41.1016 6 43.6016 8 43.8008 9.89844C43.9024 11 44.0001 12.1016 43.3008 15C42.9024 16.3984 42.5001 18.1992 41.5977 20.6992C41.0977 22.0977 40.5001 23.8008 39.3008 25.9023C39.2696 25.9531 39.2344 26.0078 39.2032 26.0625C39.3204 25.6406 39.4024 25.3008 39.4024 25.3008C39.6016 24.3008 39.6016 23.5 39.5001 22.3008C39.3985 21.6992 39.3008 20.1992 39.3008 19.5977C39.3008 19.3008 39.5977 16.1992 39.6993 15.0977C39.8008 13.3008 38.6993 11.0977 38.4024 10.6992C36.9024 8.39844 36.1016 7.10156 34.5001 5.80078C34.1016 5.46094 33.418 4.89453 32.4883 4.32422C33.2227 4.14453 34.0352 4 34.9024 4ZM26.0665 4.41016C27.3711 4.44141 28.4766 4.80078 29.3008 5.10156C31.4024 5.80078 32.6993 6.89844 33.3008 7.39844C34.6016 8.5 35.3008 9.60156 36.8008 11.9023C36.9102 12.1211 37.1954 12.5859 37.4219 13.2344C35.3751 13.0469 34.0157 13.7656 33.1993 14.5C32.0001 15.5 32.0977 17 32.1993 18.0977C32.1993 18.8984 32.4024 19.9023 33.9024 23.3008C34.5001 24.8008 35.0977 26.3984 35.6993 27.5C36.0118 28.1211 36.3946 28.6914 36.8047 29.1992C36.5665 29.3203 36.3243 29.4766 36.0977 29.6992C35.5001 30.3984 35.3985 31.1016 35.1993 32.4023C35.0001 33.4023 34.8008 35.5 34.6993 37.1992C34.6993 37.8984 34.4024 41.3008 34.3008 41.8008C34.0001 42.8008 33.8985 43.3008 33.5001 43.9023C32.8008 45 30.6016 45.9023 29.3008 45.8008C28.9024 45.8008 28.3008 45.8008 27.8008 45.4023C26.6993 44.6016 26.3008 42.8008 26.1993 41.4023C26.0977 40.4023 26.1993 33.1992 26.0001 31.5977C25.8985 31.1992 25.8008 30.1992 25.0001 29.5C24.6641 29.2188 23.9688 29.0742 23.3126 28.9766C23.3204 28.6406 23.3399 28.3047 23.4024 28C23.5001 27.3984 23.6993 27.0977 23.9024 26.5977C24.0001 26.3008 24.1993 25.9023 24.4024 25.4023C25.3008 22.6016 25.0977 18.8984 24.5977 16.5977C24.5001 16.3984 24.0977 14.8008 22.6993 13.9023C21.1993 13 19.5977 13.5 18.6993 13.8008C18.3282 13.9023 17.961 14.0625 17.5938 14.25C17.6563 13.832 17.711 13.4102 17.8008 13C18.1993 11 18.6016 9.30078 19.9024 7.60156C21.3008 5.89844 22.8985 4.80078 24.6993 4.5C25.1758 4.42578 25.6329 4.39844 26.0665 4.41016ZM13.7188 4.58594C13.9532 4.58203 14.1524 4.58594 14.3008 4.60156C15.8633 4.68359 17.3594 5.05078 18.8438 5.67578C18.6602 5.87891 18.4766 6.08203 18.3008 6.30078C16.6016 8.30078 16.1993 10.3984 15.8008 12.5C15.3008 15 15.1993 17.5977 15.5977 20.1992L15.4024 22.0977C15.3008 23.0977 15.0977 25 16.1993 27C16.586 27.6641 17.0118 28.2266 17.4805 28.707C16.4649 30.0508 15.3868 31.3203 14.3008 32.5C13.6993 33.1992 13.1993 33.6992 12.8008 33.6992C12.6993 33.6992 12.3008 33.5 11.6993 32.8008C10.5977 31.6016 10.1993 30.3008 10.0001 29.8008C8.80084 26.1992 8.10162 23.8984 8.00006 23.5977C7.19928 20.3984 6.80084 18.8008 6.39849 16.5C5.89849 13.3008 5.89849 11.6992 6.19928 10.4023C6.50006 9 7.00006 7.89844 7.50006 7.10156C8.72662 5.17578 12.0938 4.62891 13.7188 4.58594ZM36.6641 15.125C36.9844 15.125 37.3321 15.1641 37.6993 15.2422C37.6876 16.1758 37.3008 19.1055 37.3008 19.5C37.3008 20.3008 37.5001 21.8984 37.5001 22.5C37.6016 23.6016 37.6016 24.1992 37.5001 25C37.5001 25 37.3516 25.7148 37.1993 26.2227C36.7344 25.1719 36.2188 23.918 35.5977 22.5C34.0977 19.1016 34.0001 18.4023 34.0001 17.9023C34.0001 17.1992 34.0001 16.3008 34.5977 15.9023C35.1602 15.4023 35.8438 15.1328 36.6641 15.125ZM21.1407 15.418C21.3399 15.4414 21.5235 15.5 21.6993 15.5977C22.5001 16 22.6993 17 22.6993 17C23.1993 19.1992 23.3985 22.5 22.5977 24.6992C22.5001 25.0977 22.3008 25.3984 22.1993 25.6992C22.0001 26.1992 21.8008 26.6992 21.5977 27.5977C21.5469 27.9688 21.5235 28.3359 21.5118 28.7031C20.8204 28.5586 20.168 28.3125 19.6993 28C18.8985 27.6016 18.3008 26.8984 17.9024 26.0977C17.1993 24.5977 17.3008 23.1992 17.4024 22.4023L17.5977 20.0977C17.4571 18.9727 17.3907 17.8438 17.4063 16.7227C17.8672 16.3281 18.4688 15.9258 19.3008 15.6992C19.9024 15.5508 20.5586 15.3438 21.1407 15.418ZM35.8868 16.0898C35.6251 16.1016 35.3477 16.1484 35.1993 16.1992C34.8008 16.3008 34.6993 16.3008 34.5977 16.5C34.5001 16.6992 34.8008 17 34.9024 17.1992C35.0001 17.1992 35.3008 17.5 35.6993 17.4023C36.0001 17.3008 36.1993 17.1016 36.3008 17C36.4024 16.8984 36.8008 16.3984 36.5001 16.1992C36.3985 16.0977 36.1485 16.0742 35.8868 16.0898ZM20.9141 16.8164C20.8047 16.8242 20.6993 16.8516 20.5977 16.9023C20.5001 16.9023 20.3008 17 20.1993 17.1992C20.0977 17.3984 20.1993 17.5977 20.3008 17.6992C20.5001 18 20.8008 18.3008 21.3008 18.3008C21.4024 18.3008 21.8008 18.3008 22.0977 18C22.0977 18 22.4024 17.6992 22.4024 17.4023C22.3008 17.1992 22.1016 17.1016 21.8008 17C21.5743 16.9258 21.2383 16.793 20.9141 16.8164ZM19.0743 29.9023C19.6876 30.2305 20.4258 30.4961 21.2344 30.6797C21.0196 31.1094 20.711 31.4648 20.4024 31.6992C19.6993 32.1992 18.8008 32.5 17.9024 32.6992C17.6993 32.6992 17.6016 32.8008 17.4024 32.8008C16.918 32.9375 16.4493 33.0898 16.129 33.4219C17.1094 32.332 18.0938 31.1289 19.0743 29.9023ZM38.3555 30.7031C38.793 31.0312 39.2227 31.2734 39.5977 31.4023C40.1993 31.6016 40.6993 31.6016 42.5001 31.4023C42.1993 31.6992 41.3008 32.1992 40.0001 32.4023C39.1641 32.4844 38.1251 32.2852 37.2813 32.043C37.3594 31.4766 37.4493 31.1523 37.5977 31C37.6524 30.9492 37.9844 30.8477 38.3555 30.7031ZM23.2969 31.0039C23.504 31.0391 23.668 31.0664 23.6993 31.0977C23.8985 31.3008 24.0001 31.8008 24.0001 32C24.0118 32.1719 24.0196 32.6055 24.0274 32.9062C23.2032 33.8711 21.879 34.4062 21.5977 34.5C21.1993 34.6992 20.0001 34.8984 18.8008 34.5C19.8008 34.1992 20.8008 33.9023 21.5977 33.3008C22.2969 32.8008 22.8985 32.0039 23.2969 31.0039Z" fill="black"/>
</svg>
