<svg width="49" height="50" viewBox="0 0 49 50" fill="none" xmlns="http://www.w3.org/2000/svg">
<path d="M33.8636 3.9844C33.0995 3.95818 32.2997 4.09412 31.4978 4.3594C29.894 4.88996 28.2134 5.92391 26.4887 7.35549C25.8128 7.91653 25.1308 8.55785 24.4464 9.2383C23.7772 8.57513 23.1091 7.94907 22.4481 7.40041C20.7248 5.96998 19.0488 4.93759 17.4486 4.40823C15.8484 3.87886 14.2563 3.86246 12.9486 4.63284C11.641 5.40321 10.859 6.81738 10.5082 8.49612C10.1574 10.1749 10.1941 12.174 10.5465 14.4121C10.6689 15.1895 10.8453 16.0051 11.0442 16.836C10.297 17.067 9.57135 17.31 8.89849 17.5781C6.86783 18.3875 5.18759 19.3557 3.96403 20.5078C2.74048 21.66 1.95044 23.0583 1.95044 24.5938C1.95044 26.1292 2.74048 27.5256 3.96403 28.6778C5.18759 29.8299 6.86783 30.8001 8.89849 31.6094C9.61798 31.8961 10.3969 32.1543 11.2011 32.3985C10.9119 33.5013 10.6775 34.5715 10.5178 35.586C10.1651 37.8259 10.1279 39.8253 10.4795 41.5078C10.8311 43.1904 11.6135 44.6126 12.9276 45.3867C14.2417 46.1609 15.841 46.1419 17.4448 45.6114C19.0486 45.0808 20.7273 44.0488 22.452 42.6172C23.1217 42.0613 23.7991 41.4272 24.477 40.7539C25.1582 41.4309 25.839 42.0686 26.5117 42.627C28.235 44.0574 29.913 45.0898 31.5131 45.6192C33.1133 46.1485 34.7035 46.1649 36.0112 45.3946C37.3188 44.6242 38.1008 43.21 38.4516 41.5313C38.8024 39.8525 38.7638 37.8534 38.4114 35.6153C38.2513 34.598 38.0168 33.5262 37.7262 32.4199C38.5569 32.1699 39.3605 31.9047 40.1015 31.6094C42.1322 30.8001 43.8124 29.8299 45.036 28.6778C46.2595 27.5256 47.0496 26.1292 47.0496 24.5938C47.0496 23.0583 46.2595 21.66 45.036 20.5078C43.8124 19.3557 42.1322 18.3875 40.1015 17.5781C39.419 17.3061 38.6823 17.06 37.9233 16.8262C38.1237 15.9902 38.3017 15.1688 38.4248 14.3867C38.7775 12.1468 38.8147 10.1455 38.4631 8.46291C38.1115 6.78037 37.3272 5.36015 36.0131 4.58596C35.356 4.19887 34.6277 4.01061 33.8636 3.9844ZM33.7736 6.01955C34.2531 6.03293 34.6622 6.14936 35.012 6.35549C35.7118 6.76775 36.2291 7.57012 36.505 8.89065C36.781 10.2112 36.7714 11.9954 36.4457 14.0645C36.3341 14.7729 36.1722 15.5237 35.9882 16.293C33.9842 15.8009 31.7882 15.4354 29.4479 15.2207C28.2721 13.5585 27.0636 12.0464 25.8456 10.7031C26.4896 10.0617 27.1294 9.46175 27.7539 8.94338C29.3471 7.62096 30.8554 6.72112 32.1142 6.30471C32.7435 6.09651 33.2942 6.00618 33.7736 6.01955ZM15.1766 6.02541C15.6589 6.01168 16.2107 6.10176 16.8418 6.31057C18.1042 6.72818 19.6152 7.62762 21.2097 8.95119C21.8216 9.45904 22.4474 10.0459 23.0779 10.6719C21.851 12.0258 20.6341 13.5537 19.4507 15.2305C17.1187 15.4492 14.9306 15.818 12.9352 16.3125C12.7524 15.5469 12.5927 14.7991 12.4816 14.0938C12.1556 12.0229 12.1474 10.2365 12.4242 8.91213C12.7009 7.58779 13.2224 6.78133 13.9286 6.36526C14.2818 6.15722 14.6944 6.03915 15.1766 6.02541ZM24.477 12.1426C25.2753 13.029 26.074 13.9993 26.8658 15.043C26.0876 15.0099 25.3 14.9903 24.5 14.9903C23.6841 14.9903 22.8815 15.0105 22.0883 15.0449C22.8804 14.0003 23.6785 13.0298 24.477 12.1426ZM24.5 17.0098C25.8327 17.0098 27.1317 17.0657 28.3951 17.1602C29.2645 18.4343 30.1141 19.7861 30.9236 21.2168C31.6349 22.474 32.2786 23.7292 32.8645 24.9688C32.2724 26.2248 31.6179 27.497 30.8968 28.7715C30.262 29.8934 29.5991 30.959 28.9253 31.9864C27.4981 32.1081 26.0193 32.1758 24.5 32.1758C22.9441 32.1758 21.4321 32.1041 19.9733 31.9766C19.3107 30.964 18.659 29.9126 18.0343 28.8086C17.3148 27.537 16.6635 26.2691 16.0724 25.0156C16.666 23.7551 17.3202 22.4782 18.0439 21.1992C18.8492 19.776 19.6963 18.4321 20.5609 17.1641C21.8379 17.0674 23.152 17.0098 24.5 17.0098ZM30.9198 17.4102C32.5346 17.6158 34.0508 17.9016 35.4618 18.2442C35.043 19.6453 34.527 21.1088 33.9019 22.6192C33.496 21.8207 33.0756 21.0196 32.6214 20.2168C32.0712 19.2445 31.4992 18.316 30.9198 17.4102ZM17.9769 17.4258C17.4094 18.3151 16.8509 19.2246 16.3117 20.1778C15.8516 20.9908 15.4225 21.8028 15.012 22.6114C14.3923 21.1101 13.8794 19.6549 13.4635 18.2617C14.8647 17.9184 16.3726 17.6338 17.9769 17.4258ZM37.4008 18.7754C38.0955 18.9899 38.7664 19.2137 39.3818 19.459C41.2538 20.2051 42.7345 21.0885 43.6942 21.9922C44.6539 22.8959 45.0704 23.7577 45.0704 24.5938C45.0704 25.4298 44.6539 26.2916 43.6942 27.1953C42.7345 28.099 41.2538 28.9825 39.3818 29.7285C38.698 30.0011 37.9466 30.2483 37.1654 30.4824C36.6081 28.7237 35.8968 26.8888 35.0503 25.0156C36.0236 22.8651 36.8099 20.7683 37.4008 18.7754ZM11.5667 18.7852C12.1508 20.7581 12.927 22.8342 13.8865 24.9629C13.0345 26.847 12.3197 28.6923 11.76 30.461C11.0064 30.2329 10.2804 29.9925 9.61817 29.7285C7.74622 28.9825 6.26549 28.099 5.30579 27.1953C4.34609 26.2916 3.92958 25.4298 3.92958 24.5938C3.92958 23.7577 4.34609 22.8959 5.30579 21.9922C6.26549 21.0885 7.74622 20.2051 9.61817 19.459C10.2241 19.2175 10.8838 18.9969 11.5667 18.7852ZM24.5 20C21.8054 20 19.6 22.2504 19.6 25C19.6 27.7496 21.8054 30 24.5 30C27.1946 30 29.4 27.7496 29.4 25C29.4 22.2504 27.1946 20 24.5 20ZM24.5 22C26.1353 22 27.44 23.3313 27.44 25C27.44 26.6687 26.1353 28 24.5 28C22.8647 28 21.56 26.6687 21.56 25C21.56 23.3313 22.8647 22 24.5 22ZM33.9268 27.3633C34.4407 28.6045 34.8875 29.8191 35.2628 30.9903C34.0842 31.2691 32.8293 31.5041 31.5093 31.6895C31.8893 31.0708 32.2645 30.4406 32.6309 29.793C33.0903 28.9812 33.5168 28.1705 33.9268 27.3633ZM15.035 27.3653C15.4471 28.1775 15.8763 28.9918 16.3384 29.8086C16.7003 30.4481 17.0697 31.0724 17.4448 31.6836C16.1287 31.4974 14.8776 31.2616 13.7028 30.9824C14.0764 29.8148 14.5234 28.6028 15.035 27.3653ZM13.1381 32.9239C14.9118 33.3526 16.8342 33.6819 18.8727 33.8965C20.2337 35.9053 21.6508 37.7093 23.0779 39.2871C22.4399 39.9219 21.8075 40.5176 21.1887 41.0313C19.5955 42.3537 18.0852 43.2516 16.8265 43.668C15.5678 44.0844 14.6284 44.0295 13.9286 43.6172C13.2289 43.2049 12.7135 42.4026 12.4376 41.0821C12.1616 39.7615 12.1693 37.9793 12.495 35.9102C12.6428 34.9715 12.8636 33.9664 13.1381 32.9239ZM35.8293 32.9317C36.1059 33.98 36.3277 34.9898 36.4763 35.9336C36.8023 38.0045 36.8105 39.789 36.5337 41.1133C36.257 42.4376 35.7374 43.2461 35.0312 43.6621C34.3249 44.0782 33.3784 44.1344 32.1161 43.7168C30.8537 43.2992 29.3428 42.3978 27.7482 41.0742C27.1249 40.5569 26.4882 39.9583 25.8456 39.3184C27.2819 37.7346 28.7096 35.9208 30.0795 33.9004C32.1231 33.6873 34.0509 33.3599 35.8293 32.9317ZM21.4299 34.1016C22.4361 34.1575 23.4556 34.1953 24.5 34.1953C25.5099 34.1953 26.4963 34.1598 27.4706 34.1074C26.4747 35.4786 25.4595 36.7252 24.4483 37.8477C23.4378 36.7228 22.4245 35.474 21.4299 34.1016Z" fill="black"/>
</svg>
